{"images":[{"name":"","uri":"1669722087258.png"}],"accessors":[{"componentType":5126,"min":[-244.00477600097656,78.77210998535156,-67.30642700195312],"bufferView":0,"max":[207.0100860595703,621.3251953125,223.32667541503906],"count":175125,"type":"VEC3"},{"componentType":5126,"bufferView":1,"count":175125,"type":"VEC3"},{"componentType":5126,"bufferView":2,"count":175125,"type":"VEC2"},{"componentType":5125,"bufferView":3,"count":175125,"type":"SCALAR"}],"extensionsUsed":["MTL","avatar_shape_names","avatar_arcdata","avatar_glass_keypoints","Arc3DTech"],"textures":[{"name":"","source":0,"sampler":0}],"buffers":[{"byteLength":6304500,"name":"ArcsoftBuffer","uri":"1669722087258.bin"}],"bufferViews":[{"byteOffset":0,"byteLength":2101500,"buffer":0},{"byteOffset":2101500,"byteLength":2101500,"buffer":0},{"byteOffset":4203000,"byteLength":1401000,"buffer":0},{"byteOffset":5604000,"byteLength":700500,"buffer":0}],"samplers":[{"minFilter":9987,"name":"","wrapT":10497,"wrapS":10497,"magFilter":9729}],"scene":0,"nodes":[{"rotation":[0.0,0.0,0.0,1.0],"name":"","translation":[0.0,0.0,0.0],"scale":[1.0,1.0,1.0],"mesh":0}],"materials":[{"extensions":{"MTL":{"d":1.0,"Ns":5.0,"Ka":[0.429,0.535,0.382],"map_Kd":"1669722087258.png","Ks":[0.0,0.0,0.0],"Kd":[0.429,0.535,0.382],"illum":2.0}},"name":"","doubleSided":true,"pbrMetallicRoughness":{"baseColorTexture":{"index":0,"texCoord":0},"metallicFactor":1.0,"roughnessFactor":1.0},"alphaMode":"OPAQUE"}],"scenes":[{"nodes":[0]}],"asset":{"generator":"Arcsoftgltf v1.0","version":"2.0"},"meshes":[{"extensions":{"Arc3DTech":{"Model":"Human","ScanAngle":"-180.0;0.0;0.0;180.0","Date":"11 29,2022 16:41:5"}},"primitives":[{"indices":3,"material":0,"attributes":{"POSITION":0,"TEXCOORD_0":2,"NORMAL":1}}],"name":"ArcsoftMeshes0"}]}